<mxfile host="app.diagrams.net" modified="2024-02-28T14:10:40.395Z" agent="Mozilla/5.0 (Windows NT 10.0; Win64; x64) AppleWebKit/537.36 (KHTML, like Gecko) Chrome/121.0.0.0 Safari/537.36" etag="DcThowz4Bq1LkbT45iZL" version="23.1.3" type="device">
  <diagram name="Seite-1" id="J8L5YOD9kE9_bq3X1bef">
    <mxGraphModel dx="1313" dy="663" grid="1" gridSize="10" guides="1" tooltips="1" connect="1" arrows="1" fold="1" page="1" pageScale="1" pageWidth="827" pageHeight="1169" math="0" shadow="0">
      <root>
        <mxCell id="0" />
        <mxCell id="1" parent="0" />
        <mxCell id="99X4dkrTFjrO0PwMJhht-154" value="" style="rounded=0;whiteSpace=wrap;html=1;fillColor=none;" vertex="1" parent="1">
          <mxGeometry x="40" y="1600" width="760" height="320" as="geometry" />
        </mxCell>
        <mxCell id="99X4dkrTFjrO0PwMJhht-98" value="" style="rounded=0;whiteSpace=wrap;html=1;fillColor=none;" vertex="1" parent="1">
          <mxGeometry x="40" y="760" width="760" height="320" as="geometry" />
        </mxCell>
        <mxCell id="99X4dkrTFjrO0PwMJhht-62" value="" style="endArrow=none;html=1;rounded=0;fillColor=#e1d5e7;strokeColor=#9673a6;strokeWidth=2;" edge="1" parent="1">
          <mxGeometry width="50" height="50" relative="1" as="geometry">
            <mxPoint x="550" y="1000" as="sourcePoint" />
            <mxPoint x="550" y="900" as="targetPoint" />
          </mxGeometry>
        </mxCell>
        <mxCell id="99X4dkrTFjrO0PwMJhht-42" value="" style="rounded=0;whiteSpace=wrap;html=1;fillColor=none;" vertex="1" parent="1">
          <mxGeometry x="40" y="400" width="760" height="280" as="geometry" />
        </mxCell>
        <mxCell id="99X4dkrTFjrO0PwMJhht-1" value="&lt;font style=&quot;font-size: 18px;&quot;&gt;Uniquely identifying DRKeys from RelTime while minimizing memory&lt;/font&gt;" style="text;html=1;align=left;verticalAlign=middle;resizable=0;points=[];autosize=1;strokeColor=none;fillColor=none;" vertex="1" parent="1">
          <mxGeometry x="40" y="40" width="570" height="40" as="geometry" />
        </mxCell>
        <mxCell id="99X4dkrTFjrO0PwMJhht-2" value="&lt;div style=&quot;&quot;&gt;&lt;span style=&quot;background-color: initial;&quot;&gt;As stated in the SCION documentation [1] it is possible to uniquely identify the DRKey epoch by considering three candidate epochs.&lt;/span&gt;&lt;/div&gt;&lt;div style=&quot;&quot;&gt;This document shows that in LF we can achieve the same by only considering two epochs.&amp;nbsp;&lt;/div&gt;&lt;div style=&quot;&quot;&gt;This is achieved by choosing the acceptance window small enough and good timing of the key update.&lt;/div&gt;&lt;div style=&quot;&quot;&gt;&lt;br&gt;&lt;/div&gt;&lt;div style=&quot;&quot;&gt;&lt;span style=&quot;background-color: initial;&quot;&gt;[1] (&lt;a href=&quot;https://scion.docs.anapaya.net/en/latest/protocols/authenticator-option.html#absolute-time-and-drkey-selection&quot;&gt;https://scion.docs.anapaya.net/en/latest/protocols/authenticator-option.html#absolute-time-and-drkey-selection&lt;/a&gt;)&amp;nbsp;&lt;/span&gt;&lt;br&gt;&lt;/div&gt;&lt;div style=&quot;&quot;&gt;&lt;span style=&quot;background-color: initial;&quot;&gt;&lt;br&gt;&lt;/span&gt;&lt;/div&gt;&lt;div style=&quot;&quot;&gt;&lt;span style=&quot;background-color: initial;&quot;&gt;&lt;br&gt;&lt;/span&gt;&lt;/div&gt;&lt;div style=&quot;&quot;&gt;&lt;span style=&quot;background-color: initial;&quot;&gt;&lt;br&gt;&lt;/span&gt;&lt;/div&gt;&lt;div style=&quot;&quot;&gt;Below we differentiate different cases to show that in the LF setup it is always enough to only store two DRKeys.&lt;/div&gt;&lt;div style=&quot;&quot;&gt;Some words on notation:&lt;/div&gt;&lt;div style=&quot;&quot;&gt;&lt;b&gt;T&lt;/b&gt; is the current time.&lt;/div&gt;&lt;div style=&quot;&quot;&gt;&lt;b&gt;Acc Win&lt;/b&gt; is the acceptance window around &lt;b&gt;T&lt;/b&gt;. Is must be smaller then the epoch len to uniquely identify a key.&lt;/div&gt;&lt;div style=&quot;&quot;&gt;&lt;b&gt;E&lt;sub&gt;i&lt;/sub&gt;&lt;/b&gt; is always the currently active epoch. It holds therefore that&amp;nbsp;&lt;b&gt;T ∈ E&lt;/b&gt;&lt;sub style=&quot;font-weight: bold;&quot;&gt;i&lt;/sub&gt;.&lt;/div&gt;&lt;div style=&quot;&quot;&gt;&lt;b&gt;AbsTime&lt;/b&gt; is the absolut time that the packet was sent.&lt;/div&gt;&lt;div style=&quot;&quot;&gt;&lt;b&gt;RelTime&lt;/b&gt; is the relative timestamp that is sent in the SPAO header.&lt;/div&gt;&lt;div style=&quot;&quot;&gt;&lt;b&gt;at&lt;sub&gt;i-1&lt;/sub&gt;&lt;/b&gt;, &lt;b&gt;at&lt;sub&gt;i&lt;/sub&gt;&lt;/b&gt; and &lt;b&gt;at&lt;/b&gt;&lt;sub style=&quot;font-weight: bold;&quot;&gt;i+1 &lt;/sub&gt;are the absolute times that can be calculated from the RelTime added to the corresponding epoch start times.&amp;nbsp;&lt;/div&gt;" style="text;html=1;align=left;verticalAlign=middle;resizable=0;points=[];autosize=1;strokeColor=none;fillColor=none;container=0;" vertex="1" parent="1">
          <mxGeometry x="40" y="100" width="730" height="250" as="geometry" />
        </mxCell>
        <mxCell id="99X4dkrTFjrO0PwMJhht-3" value="" style="endArrow=none;html=1;rounded=0;" edge="1" parent="1">
          <mxGeometry width="50" height="50" relative="1" as="geometry">
            <mxPoint x="180" y="565" as="sourcePoint" />
            <mxPoint x="790" y="565" as="targetPoint" />
          </mxGeometry>
        </mxCell>
        <mxCell id="99X4dkrTFjrO0PwMJhht-4" value="" style="endArrow=none;html=1;rounded=0;" edge="1" parent="1">
          <mxGeometry width="50" height="50" relative="1" as="geometry">
            <mxPoint x="180" y="545" as="sourcePoint" />
            <mxPoint x="180" y="585" as="targetPoint" />
          </mxGeometry>
        </mxCell>
        <mxCell id="99X4dkrTFjrO0PwMJhht-5" value="" style="endArrow=none;html=1;rounded=0;" edge="1" parent="1">
          <mxGeometry width="50" height="50" relative="1" as="geometry">
            <mxPoint x="380" y="545" as="sourcePoint" />
            <mxPoint x="380" y="585" as="targetPoint" />
          </mxGeometry>
        </mxCell>
        <mxCell id="99X4dkrTFjrO0PwMJhht-6" value="" style="endArrow=none;html=1;rounded=0;" edge="1" parent="1">
          <mxGeometry width="50" height="50" relative="1" as="geometry">
            <mxPoint x="580" y="545" as="sourcePoint" />
            <mxPoint x="580" y="585" as="targetPoint" />
          </mxGeometry>
        </mxCell>
        <mxCell id="99X4dkrTFjrO0PwMJhht-7" value="" style="endArrow=none;html=1;rounded=0;" edge="1" parent="1">
          <mxGeometry width="50" height="50" relative="1" as="geometry">
            <mxPoint x="780" y="585" as="sourcePoint" />
            <mxPoint x="780" y="545" as="targetPoint" />
          </mxGeometry>
        </mxCell>
        <mxCell id="99X4dkrTFjrO0PwMJhht-9" value="&lt;b&gt;E&lt;sub&gt;i - 1&lt;/sub&gt;&lt;/b&gt;" style="text;html=1;align=center;verticalAlign=middle;whiteSpace=wrap;rounded=0;" vertex="1" parent="1">
          <mxGeometry x="250" y="425" width="60" height="30" as="geometry" />
        </mxCell>
        <mxCell id="99X4dkrTFjrO0PwMJhht-11" value="Stored Old Key" style="text;html=1;align=center;verticalAlign=middle;whiteSpace=wrap;rounded=0;" vertex="1" parent="1">
          <mxGeometry x="230" y="445" width="100" height="30" as="geometry" />
        </mxCell>
        <mxCell id="99X4dkrTFjrO0PwMJhht-12" value="Stored Key" style="text;html=1;align=center;verticalAlign=middle;whiteSpace=wrap;rounded=0;" vertex="1" parent="1">
          <mxGeometry x="446" y="445" width="76" height="30" as="geometry" />
        </mxCell>
        <mxCell id="99X4dkrTFjrO0PwMJhht-19" value="" style="shape=curlyBracket;whiteSpace=wrap;html=1;rounded=1;flipH=1;labelPosition=right;verticalLabelPosition=middle;align=left;verticalAlign=middle;rotation=-90;" vertex="1" parent="1">
          <mxGeometry x="270" y="375" width="20" height="200" as="geometry" />
        </mxCell>
        <mxCell id="99X4dkrTFjrO0PwMJhht-20" value="" style="shape=curlyBracket;whiteSpace=wrap;html=1;rounded=1;flipH=1;labelPosition=right;verticalLabelPosition=middle;align=left;verticalAlign=middle;rotation=-90;" vertex="1" parent="1">
          <mxGeometry x="670" y="375" width="20" height="200" as="geometry" />
        </mxCell>
        <mxCell id="99X4dkrTFjrO0PwMJhht-21" value="" style="shape=curlyBracket;whiteSpace=wrap;html=1;rounded=1;flipH=1;labelPosition=right;verticalLabelPosition=middle;align=left;verticalAlign=middle;rotation=-90;" vertex="1" parent="1">
          <mxGeometry x="470" y="375" width="20" height="200" as="geometry" />
        </mxCell>
        <mxCell id="99X4dkrTFjrO0PwMJhht-25" value="&lt;u&gt;Common case&lt;br&gt;&lt;/u&gt;&lt;br&gt;T&amp;nbsp;∈ E&lt;sub&gt;i&lt;br&gt;&lt;/sub&gt;AbsTime&amp;nbsp;∈ E&lt;sub&gt;i&lt;/sub&gt;&lt;br&gt;T &amp;lt; PreFetch(E&lt;sub&gt;i+1&lt;/sub&gt;)" style="shape=ext;double=1;rounded=0;whiteSpace=wrap;html=1;" vertex="1" parent="1">
          <mxGeometry x="40" y="400" width="130" height="100" as="geometry" />
        </mxCell>
        <mxCell id="99X4dkrTFjrO0PwMJhht-26" value="&lt;b&gt;E&lt;sub&gt;i + 1&lt;/sub&gt;&lt;/b&gt;" style="text;html=1;align=center;verticalAlign=middle;whiteSpace=wrap;rounded=0;" vertex="1" parent="1">
          <mxGeometry x="650" y="425" width="60" height="30" as="geometry" />
        </mxCell>
        <mxCell id="99X4dkrTFjrO0PwMJhht-28" value="&lt;b&gt;E&lt;sub&gt;i&amp;nbsp;&lt;/sub&gt;&lt;/b&gt;" style="text;html=1;align=center;verticalAlign=middle;whiteSpace=wrap;rounded=0;" vertex="1" parent="1">
          <mxGeometry x="450" y="425" width="60" height="30" as="geometry" />
        </mxCell>
        <mxCell id="99X4dkrTFjrO0PwMJhht-31" value="&lt;b&gt;&lt;font style=&quot;font-size: 18px;&quot;&gt;T&lt;/font&gt;&lt;/b&gt;" style="text;html=1;align=center;verticalAlign=middle;whiteSpace=wrap;rounded=0;" vertex="1" parent="1">
          <mxGeometry x="460" y="620" width="60" height="30" as="geometry" />
        </mxCell>
        <mxCell id="99X4dkrTFjrO0PwMJhht-33" value="" style="endArrow=none;html=1;rounded=0;entryX=0.5;entryY=0;entryDx=0;entryDy=0;fillColor=#e51400;strokeColor=#FF0000;strokeWidth=2;" edge="1" parent="1" target="99X4dkrTFjrO0PwMJhht-31">
          <mxGeometry width="50" height="50" relative="1" as="geometry">
            <mxPoint x="490" y="540" as="sourcePoint" />
            <mxPoint x="570" y="480" as="targetPoint" />
          </mxGeometry>
        </mxCell>
        <mxCell id="99X4dkrTFjrO0PwMJhht-34" value="" style="shape=curlyBracket;whiteSpace=wrap;html=1;rounded=1;labelPosition=left;verticalLabelPosition=middle;align=right;verticalAlign=middle;rotation=90;" vertex="1" parent="1">
          <mxGeometry x="480" y="490" width="20" height="80" as="geometry" />
        </mxCell>
        <mxCell id="99X4dkrTFjrO0PwMJhht-35" value="Acc Win" style="text;html=1;align=center;verticalAlign=middle;resizable=0;points=[];autosize=1;strokeColor=none;fillColor=none;" vertex="1" parent="1">
          <mxGeometry x="455" y="497" width="70" height="30" as="geometry" />
        </mxCell>
        <mxCell id="99X4dkrTFjrO0PwMJhht-36" value="" style="endArrow=none;html=1;rounded=0;fillColor=#e1d5e7;strokeColor=#9673a6;strokeWidth=2;" edge="1" parent="1">
          <mxGeometry width="50" height="50" relative="1" as="geometry">
            <mxPoint x="550" y="640" as="sourcePoint" />
            <mxPoint x="550" y="540" as="targetPoint" />
          </mxGeometry>
        </mxCell>
        <mxCell id="99X4dkrTFjrO0PwMJhht-37" value="PreFetch(E&lt;sub&gt;i+1&lt;/sub&gt;)" style="text;html=1;align=center;verticalAlign=middle;resizable=0;points=[];autosize=1;strokeColor=none;fillColor=none;" vertex="1" parent="1">
          <mxGeometry x="510" y="640" width="100" height="30" as="geometry" />
        </mxCell>
        <mxCell id="99X4dkrTFjrO0PwMJhht-38" value="" style="endArrow=none;html=1;rounded=0;fillColor=#d5e8d4;strokeColor=#00FF00;strokeWidth=2;entryX=0.6;entryY=0.1;entryDx=0;entryDy=0;entryPerimeter=0;" edge="1" parent="1" target="99X4dkrTFjrO0PwMJhht-41">
          <mxGeometry width="50" height="50" relative="1" as="geometry">
            <mxPoint x="460" y="540" as="sourcePoint" />
            <mxPoint x="460" y="600" as="targetPoint" />
          </mxGeometry>
        </mxCell>
        <mxCell id="99X4dkrTFjrO0PwMJhht-39" value="" style="endArrow=none;html=1;rounded=0;fillColor=#d5e8d4;strokeColor=#00FF00;strokeWidth=2;" edge="1" parent="1" target="99X4dkrTFjrO0PwMJhht-40">
          <mxGeometry width="50" height="50" relative="1" as="geometry">
            <mxPoint x="260" y="540" as="sourcePoint" />
            <mxPoint x="260" y="600" as="targetPoint" />
          </mxGeometry>
        </mxCell>
        <mxCell id="99X4dkrTFjrO0PwMJhht-40" value="at&lt;sub&gt;i-1&lt;/sub&gt;" style="text;html=1;align=center;verticalAlign=middle;whiteSpace=wrap;rounded=0;" vertex="1" parent="1">
          <mxGeometry x="230" y="585" width="60" height="30" as="geometry" />
        </mxCell>
        <mxCell id="99X4dkrTFjrO0PwMJhht-41" value="at&lt;sub&gt;i&lt;/sub&gt;" style="text;html=1;align=center;verticalAlign=middle;whiteSpace=wrap;rounded=0;" vertex="1" parent="1">
          <mxGeometry x="424" y="585" width="60" height="30" as="geometry" />
        </mxCell>
        <mxCell id="99X4dkrTFjrO0PwMJhht-44" value="" style="endArrow=none;html=1;rounded=0;" edge="1" parent="1">
          <mxGeometry width="50" height="50" relative="1" as="geometry">
            <mxPoint x="180" y="925" as="sourcePoint" />
            <mxPoint x="790" y="925" as="targetPoint" />
          </mxGeometry>
        </mxCell>
        <mxCell id="99X4dkrTFjrO0PwMJhht-45" value="" style="endArrow=none;html=1;rounded=0;" edge="1" parent="1">
          <mxGeometry width="50" height="50" relative="1" as="geometry">
            <mxPoint x="180" y="905" as="sourcePoint" />
            <mxPoint x="180" y="945" as="targetPoint" />
          </mxGeometry>
        </mxCell>
        <mxCell id="99X4dkrTFjrO0PwMJhht-46" value="" style="endArrow=none;html=1;rounded=0;" edge="1" parent="1">
          <mxGeometry width="50" height="50" relative="1" as="geometry">
            <mxPoint x="380" y="905" as="sourcePoint" />
            <mxPoint x="380" y="945" as="targetPoint" />
          </mxGeometry>
        </mxCell>
        <mxCell id="99X4dkrTFjrO0PwMJhht-47" value="" style="endArrow=none;html=1;rounded=0;" edge="1" parent="1">
          <mxGeometry width="50" height="50" relative="1" as="geometry">
            <mxPoint x="580" y="905" as="sourcePoint" />
            <mxPoint x="580" y="945" as="targetPoint" />
          </mxGeometry>
        </mxCell>
        <mxCell id="99X4dkrTFjrO0PwMJhht-48" value="" style="endArrow=none;html=1;rounded=0;" edge="1" parent="1">
          <mxGeometry width="50" height="50" relative="1" as="geometry">
            <mxPoint x="780" y="945" as="sourcePoint" />
            <mxPoint x="780" y="905" as="targetPoint" />
          </mxGeometry>
        </mxCell>
        <mxCell id="99X4dkrTFjrO0PwMJhht-49" value="&lt;b&gt;E&lt;sub&gt;i - 1&lt;/sub&gt;&lt;/b&gt;" style="text;html=1;align=center;verticalAlign=middle;whiteSpace=wrap;rounded=0;" vertex="1" parent="1">
          <mxGeometry x="250" y="785" width="60" height="30" as="geometry" />
        </mxCell>
        <mxCell id="99X4dkrTFjrO0PwMJhht-50" value="Stored Old Key" style="text;html=1;align=center;verticalAlign=middle;whiteSpace=wrap;rounded=0;" vertex="1" parent="1">
          <mxGeometry x="430" y="805" width="100" height="30" as="geometry" />
        </mxCell>
        <mxCell id="99X4dkrTFjrO0PwMJhht-51" value="Stored Key" style="text;html=1;align=center;verticalAlign=middle;whiteSpace=wrap;rounded=0;" vertex="1" parent="1">
          <mxGeometry x="642" y="805" width="76" height="30" as="geometry" />
        </mxCell>
        <mxCell id="99X4dkrTFjrO0PwMJhht-52" value="" style="shape=curlyBracket;whiteSpace=wrap;html=1;rounded=1;flipH=1;labelPosition=right;verticalLabelPosition=middle;align=left;verticalAlign=middle;rotation=-90;" vertex="1" parent="1">
          <mxGeometry x="270" y="735" width="20" height="200" as="geometry" />
        </mxCell>
        <mxCell id="99X4dkrTFjrO0PwMJhht-53" value="" style="shape=curlyBracket;whiteSpace=wrap;html=1;rounded=1;flipH=1;labelPosition=right;verticalLabelPosition=middle;align=left;verticalAlign=middle;rotation=-90;" vertex="1" parent="1">
          <mxGeometry x="670" y="735" width="20" height="200" as="geometry" />
        </mxCell>
        <mxCell id="99X4dkrTFjrO0PwMJhht-54" value="" style="shape=curlyBracket;whiteSpace=wrap;html=1;rounded=1;flipH=1;labelPosition=right;verticalLabelPosition=middle;align=left;verticalAlign=middle;rotation=-90;" vertex="1" parent="1">
          <mxGeometry x="470" y="735" width="20" height="200" as="geometry" />
        </mxCell>
        <mxCell id="99X4dkrTFjrO0PwMJhht-55" value="&lt;u&gt;Epoch end case&lt;br&gt;&lt;/u&gt;&lt;br&gt;T&amp;nbsp;∈ E&lt;sub&gt;i&lt;br&gt;&lt;/sub&gt;AbsTime&amp;nbsp;∈ E&lt;sub&gt;i&lt;/sub&gt;&lt;br&gt;T &amp;gt;= PreFetch(E&lt;sub&gt;i+1&lt;/sub&gt;)" style="shape=ext;double=1;rounded=0;whiteSpace=wrap;html=1;" vertex="1" parent="1">
          <mxGeometry x="40" y="760" width="130" height="100" as="geometry" />
        </mxCell>
        <mxCell id="99X4dkrTFjrO0PwMJhht-56" value="&lt;b&gt;E&lt;sub&gt;i + 1&lt;/sub&gt;&lt;/b&gt;" style="text;html=1;align=center;verticalAlign=middle;whiteSpace=wrap;rounded=0;" vertex="1" parent="1">
          <mxGeometry x="650" y="785" width="60" height="30" as="geometry" />
        </mxCell>
        <mxCell id="99X4dkrTFjrO0PwMJhht-57" value="&lt;b&gt;E&lt;sub&gt;i&amp;nbsp;&lt;/sub&gt;&lt;/b&gt;" style="text;html=1;align=center;verticalAlign=middle;whiteSpace=wrap;rounded=0;" vertex="1" parent="1">
          <mxGeometry x="450" y="785" width="60" height="30" as="geometry" />
        </mxCell>
        <mxCell id="99X4dkrTFjrO0PwMJhht-59" value="" style="endArrow=none;html=1;rounded=0;entryX=0.5;entryY=0;entryDx=0;entryDy=0;fillColor=#e51400;strokeColor=#FF0000;strokeWidth=2;" edge="1" parent="1" source="99X4dkrTFjrO0PwMJhht-58">
          <mxGeometry width="50" height="50" relative="1" as="geometry">
            <mxPoint x="558" y="900" as="sourcePoint" />
            <mxPoint x="558" y="980" as="targetPoint" />
          </mxGeometry>
        </mxCell>
        <mxCell id="99X4dkrTFjrO0PwMJhht-60" value="" style="shape=curlyBracket;whiteSpace=wrap;html=1;rounded=1;labelPosition=left;verticalLabelPosition=middle;align=right;verticalAlign=middle;rotation=90;" vertex="1" parent="1">
          <mxGeometry x="548" y="850" width="20" height="80" as="geometry" />
        </mxCell>
        <mxCell id="99X4dkrTFjrO0PwMJhht-61" value="Acc Win" style="text;html=1;align=center;verticalAlign=middle;resizable=0;points=[];autosize=1;strokeColor=none;fillColor=none;" vertex="1" parent="1">
          <mxGeometry x="523" y="857" width="70" height="30" as="geometry" />
        </mxCell>
        <mxCell id="99X4dkrTFjrO0PwMJhht-63" value="PreFetch(E&lt;sub&gt;i+1&lt;/sub&gt;)" style="text;html=1;align=center;verticalAlign=middle;resizable=0;points=[];autosize=1;strokeColor=none;fillColor=none;" vertex="1" parent="1">
          <mxGeometry x="499" y="1000" width="100" height="30" as="geometry" />
        </mxCell>
        <mxCell id="99X4dkrTFjrO0PwMJhht-64" value="" style="endArrow=none;html=1;rounded=0;fillColor=#d5e8d4;strokeColor=#00FF00;strokeWidth=2;" edge="1" parent="1">
          <mxGeometry width="50" height="50" relative="1" as="geometry">
            <mxPoint x="750" y="900" as="sourcePoint" />
            <mxPoint x="750" y="950" as="targetPoint" />
          </mxGeometry>
        </mxCell>
        <mxCell id="99X4dkrTFjrO0PwMJhht-65" value="" style="endArrow=none;html=1;rounded=0;fillColor=#d5e8d4;strokeColor=#00FF00;strokeWidth=2;" edge="1" parent="1">
          <mxGeometry width="50" height="50" relative="1" as="geometry">
            <mxPoint x="540" y="900" as="sourcePoint" />
            <mxPoint x="540" y="950" as="targetPoint" />
          </mxGeometry>
        </mxCell>
        <mxCell id="99X4dkrTFjrO0PwMJhht-66" value="at&lt;sub&gt;i+1&lt;/sub&gt;" style="text;html=1;align=center;verticalAlign=middle;whiteSpace=wrap;rounded=0;" vertex="1" parent="1">
          <mxGeometry x="720" y="950" width="60" height="30" as="geometry" />
        </mxCell>
        <mxCell id="99X4dkrTFjrO0PwMJhht-67" value="at&lt;sub&gt;i&lt;/sub&gt;" style="text;html=1;align=center;verticalAlign=middle;whiteSpace=wrap;rounded=0;" vertex="1" parent="1">
          <mxGeometry x="508" y="942" width="60" height="30" as="geometry" />
        </mxCell>
        <mxCell id="99X4dkrTFjrO0PwMJhht-69" value="" style="endArrow=none;html=1;rounded=0;entryX=0.5;entryY=0;entryDx=0;entryDy=0;fillColor=#e51400;strokeColor=#FF0000;strokeWidth=2;" edge="1" parent="1" target="99X4dkrTFjrO0PwMJhht-58">
          <mxGeometry width="50" height="50" relative="1" as="geometry">
            <mxPoint x="558" y="900" as="sourcePoint" />
            <mxPoint x="558" y="980" as="targetPoint" />
          </mxGeometry>
        </mxCell>
        <mxCell id="99X4dkrTFjrO0PwMJhht-58" value="&lt;b&gt;&lt;font style=&quot;font-size: 18px;&quot;&gt;T&lt;/font&gt;&lt;/b&gt;" style="text;html=1;align=center;verticalAlign=middle;whiteSpace=wrap;rounded=0;" vertex="1" parent="1">
          <mxGeometry x="528" y="974" width="60" height="30" as="geometry" />
        </mxCell>
        <mxCell id="99X4dkrTFjrO0PwMJhht-72" value="" style="rounded=0;whiteSpace=wrap;html=1;fillColor=none;" vertex="1" parent="1">
          <mxGeometry x="40" y="1240" width="760" height="280" as="geometry" />
        </mxCell>
        <mxCell id="99X4dkrTFjrO0PwMJhht-73" value="" style="endArrow=none;html=1;rounded=0;" edge="1" parent="1">
          <mxGeometry width="50" height="50" relative="1" as="geometry">
            <mxPoint x="180" y="1405" as="sourcePoint" />
            <mxPoint x="790" y="1405" as="targetPoint" />
          </mxGeometry>
        </mxCell>
        <mxCell id="99X4dkrTFjrO0PwMJhht-74" value="" style="endArrow=none;html=1;rounded=0;" edge="1" parent="1">
          <mxGeometry width="50" height="50" relative="1" as="geometry">
            <mxPoint x="180" y="1385" as="sourcePoint" />
            <mxPoint x="180" y="1425" as="targetPoint" />
          </mxGeometry>
        </mxCell>
        <mxCell id="99X4dkrTFjrO0PwMJhht-75" value="" style="endArrow=none;html=1;rounded=0;" edge="1" parent="1">
          <mxGeometry width="50" height="50" relative="1" as="geometry">
            <mxPoint x="380" y="1385" as="sourcePoint" />
            <mxPoint x="380" y="1425" as="targetPoint" />
          </mxGeometry>
        </mxCell>
        <mxCell id="99X4dkrTFjrO0PwMJhht-76" value="" style="endArrow=none;html=1;rounded=0;" edge="1" parent="1">
          <mxGeometry width="50" height="50" relative="1" as="geometry">
            <mxPoint x="580" y="1385" as="sourcePoint" />
            <mxPoint x="580" y="1425" as="targetPoint" />
          </mxGeometry>
        </mxCell>
        <mxCell id="99X4dkrTFjrO0PwMJhht-77" value="" style="endArrow=none;html=1;rounded=0;" edge="1" parent="1">
          <mxGeometry width="50" height="50" relative="1" as="geometry">
            <mxPoint x="780" y="1425" as="sourcePoint" />
            <mxPoint x="780" y="1385" as="targetPoint" />
          </mxGeometry>
        </mxCell>
        <mxCell id="99X4dkrTFjrO0PwMJhht-78" value="&lt;b&gt;E&lt;sub&gt;i - 1&lt;/sub&gt;&lt;/b&gt;" style="text;html=1;align=center;verticalAlign=middle;whiteSpace=wrap;rounded=0;" vertex="1" parent="1">
          <mxGeometry x="250" y="1265" width="60" height="30" as="geometry" />
        </mxCell>
        <mxCell id="99X4dkrTFjrO0PwMJhht-79" value="Stored Old Key" style="text;html=1;align=center;verticalAlign=middle;whiteSpace=wrap;rounded=0;" vertex="1" parent="1">
          <mxGeometry x="230" y="1285" width="100" height="30" as="geometry" />
        </mxCell>
        <mxCell id="99X4dkrTFjrO0PwMJhht-80" value="Stored Key" style="text;html=1;align=center;verticalAlign=middle;whiteSpace=wrap;rounded=0;" vertex="1" parent="1">
          <mxGeometry x="446" y="1285" width="76" height="30" as="geometry" />
        </mxCell>
        <mxCell id="99X4dkrTFjrO0PwMJhht-81" value="" style="shape=curlyBracket;whiteSpace=wrap;html=1;rounded=1;flipH=1;labelPosition=right;verticalLabelPosition=middle;align=left;verticalAlign=middle;rotation=-90;" vertex="1" parent="1">
          <mxGeometry x="270" y="1215" width="20" height="200" as="geometry" />
        </mxCell>
        <mxCell id="99X4dkrTFjrO0PwMJhht-82" value="" style="shape=curlyBracket;whiteSpace=wrap;html=1;rounded=1;flipH=1;labelPosition=right;verticalLabelPosition=middle;align=left;verticalAlign=middle;rotation=-90;" vertex="1" parent="1">
          <mxGeometry x="670" y="1215" width="20" height="200" as="geometry" />
        </mxCell>
        <mxCell id="99X4dkrTFjrO0PwMJhht-83" value="" style="shape=curlyBracket;whiteSpace=wrap;html=1;rounded=1;flipH=1;labelPosition=right;verticalLabelPosition=middle;align=left;verticalAlign=middle;rotation=-90;" vertex="1" parent="1">
          <mxGeometry x="470" y="1215" width="20" height="200" as="geometry" />
        </mxCell>
        <mxCell id="99X4dkrTFjrO0PwMJhht-85" value="&lt;b&gt;E&lt;sub&gt;i + 1&lt;/sub&gt;&lt;/b&gt;" style="text;html=1;align=center;verticalAlign=middle;whiteSpace=wrap;rounded=0;" vertex="1" parent="1">
          <mxGeometry x="650" y="1265" width="60" height="30" as="geometry" />
        </mxCell>
        <mxCell id="99X4dkrTFjrO0PwMJhht-86" value="&lt;b&gt;E&lt;sub&gt;i&amp;nbsp;&lt;/sub&gt;&lt;/b&gt;" style="text;html=1;align=center;verticalAlign=middle;whiteSpace=wrap;rounded=0;" vertex="1" parent="1">
          <mxGeometry x="450" y="1265" width="60" height="30" as="geometry" />
        </mxCell>
        <mxCell id="99X4dkrTFjrO0PwMJhht-87" value="" style="endArrow=none;html=1;rounded=0;entryX=0.5;entryY=0;entryDx=0;entryDy=0;fillColor=#e51400;strokeColor=#FF0000;strokeWidth=2;" edge="1" parent="1" source="99X4dkrTFjrO0PwMJhht-97">
          <mxGeometry width="50" height="50" relative="1" as="geometry">
            <mxPoint x="388" y="1380" as="sourcePoint" />
            <mxPoint x="388" y="1460" as="targetPoint" />
          </mxGeometry>
        </mxCell>
        <mxCell id="99X4dkrTFjrO0PwMJhht-88" value="" style="shape=curlyBracket;whiteSpace=wrap;html=1;rounded=1;labelPosition=left;verticalLabelPosition=middle;align=right;verticalAlign=middle;rotation=90;" vertex="1" parent="1">
          <mxGeometry x="378" y="1330" width="20" height="80" as="geometry" />
        </mxCell>
        <mxCell id="99X4dkrTFjrO0PwMJhht-89" value="Acc Win" style="text;html=1;align=center;verticalAlign=middle;resizable=0;points=[];autosize=1;strokeColor=none;fillColor=none;" vertex="1" parent="1">
          <mxGeometry x="353" y="1337" width="70" height="30" as="geometry" />
        </mxCell>
        <mxCell id="99X4dkrTFjrO0PwMJhht-90" value="" style="endArrow=none;html=1;rounded=0;fillColor=#e1d5e7;strokeColor=#9673a6;strokeWidth=2;" edge="1" parent="1">
          <mxGeometry width="50" height="50" relative="1" as="geometry">
            <mxPoint x="550" y="1480" as="sourcePoint" />
            <mxPoint x="550" y="1380" as="targetPoint" />
          </mxGeometry>
        </mxCell>
        <mxCell id="99X4dkrTFjrO0PwMJhht-91" value="PreFetch(E&lt;sub&gt;i+1&lt;/sub&gt;)" style="text;html=1;align=center;verticalAlign=middle;resizable=0;points=[];autosize=1;strokeColor=none;fillColor=none;" vertex="1" parent="1">
          <mxGeometry x="510" y="1480" width="100" height="30" as="geometry" />
        </mxCell>
        <mxCell id="99X4dkrTFjrO0PwMJhht-92" value="" style="endArrow=none;html=1;rounded=0;fillColor=#d5e8d4;strokeColor=#00FF00;strokeWidth=2;entryX=0.499;entryY=-0.046;entryDx=0;entryDy=0;entryPerimeter=0;" edge="1" parent="1" target="99X4dkrTFjrO0PwMJhht-95">
          <mxGeometry width="50" height="50" relative="1" as="geometry">
            <mxPoint x="569.55" y="1380" as="sourcePoint" />
            <mxPoint x="569.55" y="1440" as="targetPoint" />
          </mxGeometry>
        </mxCell>
        <mxCell id="99X4dkrTFjrO0PwMJhht-93" value="" style="endArrow=none;html=1;rounded=0;fillColor=#d5e8d4;strokeColor=#00FF00;strokeWidth=2;" edge="1" parent="1" target="99X4dkrTFjrO0PwMJhht-94">
          <mxGeometry width="50" height="50" relative="1" as="geometry">
            <mxPoint x="370" y="1380" as="sourcePoint" />
            <mxPoint x="370" y="1445" as="targetPoint" />
          </mxGeometry>
        </mxCell>
        <mxCell id="99X4dkrTFjrO0PwMJhht-94" value="at&lt;sub&gt;i-1&lt;/sub&gt;" style="text;html=1;align=center;verticalAlign=middle;whiteSpace=wrap;rounded=0;" vertex="1" parent="1">
          <mxGeometry x="340" y="1426" width="60" height="30" as="geometry" />
        </mxCell>
        <mxCell id="99X4dkrTFjrO0PwMJhht-95" value="at&lt;sub&gt;i&lt;/sub&gt;" style="text;html=1;align=center;verticalAlign=middle;whiteSpace=wrap;rounded=0;" vertex="1" parent="1">
          <mxGeometry x="540" y="1426" width="60" height="30" as="geometry" />
        </mxCell>
        <mxCell id="99X4dkrTFjrO0PwMJhht-96" value="" style="endArrow=none;html=1;rounded=0;entryX=0.5;entryY=0;entryDx=0;entryDy=0;fillColor=#e51400;strokeColor=#FF0000;strokeWidth=2;" edge="1" parent="1" target="99X4dkrTFjrO0PwMJhht-97">
          <mxGeometry width="50" height="50" relative="1" as="geometry">
            <mxPoint x="388" y="1380" as="sourcePoint" />
            <mxPoint x="388" y="1460" as="targetPoint" />
          </mxGeometry>
        </mxCell>
        <mxCell id="99X4dkrTFjrO0PwMJhht-97" value="&lt;b&gt;&lt;font style=&quot;font-size: 18px;&quot;&gt;T&lt;/font&gt;&lt;/b&gt;" style="text;html=1;align=center;verticalAlign=middle;whiteSpace=wrap;rounded=0;" vertex="1" parent="1">
          <mxGeometry x="358" y="1460" width="60" height="30" as="geometry" />
        </mxCell>
        <mxCell id="99X4dkrTFjrO0PwMJhht-99" value="Notice that since T &amp;gt; PreFetch(E&lt;sub&gt;i+1&lt;/sub&gt;) we now have the keys corresponding to E&lt;sub&gt;i&lt;/sub&gt; and E&lt;sub&gt;i+1&lt;/sub&gt; stored." style="rounded=0;whiteSpace=wrap;html=1;align=left;" vertex="1" parent="1">
          <mxGeometry x="40" y="1000" width="290" height="80" as="geometry" />
        </mxCell>
        <mxCell id="99X4dkrTFjrO0PwMJhht-126" value="&lt;u&gt;Grace period case&lt;br&gt;&lt;/u&gt;&lt;br&gt;T&amp;nbsp;∈ E&lt;sub&gt;i&lt;br&gt;&lt;/sub&gt;AbsTime&amp;nbsp;∈ E&lt;sub&gt;i-1&lt;/sub&gt;&lt;br&gt;T ∈ Grace(E&lt;sub&gt;i-1&lt;/sub&gt;)&lt;br&gt;T &amp;lt; PreFetch(E&lt;sub&gt;i+1&lt;/sub&gt;)" style="shape=ext;double=1;rounded=0;whiteSpace=wrap;html=1;" vertex="1" parent="1">
          <mxGeometry x="40" y="1240" width="130" height="120" as="geometry" />
        </mxCell>
        <mxCell id="99X4dkrTFjrO0PwMJhht-128" value="" style="endArrow=none;html=1;rounded=0;" edge="1" parent="1">
          <mxGeometry width="50" height="50" relative="1" as="geometry">
            <mxPoint x="179" y="1765" as="sourcePoint" />
            <mxPoint x="789" y="1765" as="targetPoint" />
          </mxGeometry>
        </mxCell>
        <mxCell id="99X4dkrTFjrO0PwMJhht-129" value="" style="endArrow=none;html=1;rounded=0;" edge="1" parent="1">
          <mxGeometry width="50" height="50" relative="1" as="geometry">
            <mxPoint x="179" y="1745" as="sourcePoint" />
            <mxPoint x="179" y="1785" as="targetPoint" />
          </mxGeometry>
        </mxCell>
        <mxCell id="99X4dkrTFjrO0PwMJhht-130" value="" style="endArrow=none;html=1;rounded=0;" edge="1" parent="1">
          <mxGeometry width="50" height="50" relative="1" as="geometry">
            <mxPoint x="379.71" y="1745" as="sourcePoint" />
            <mxPoint x="379.71" y="1785" as="targetPoint" />
          </mxGeometry>
        </mxCell>
        <mxCell id="99X4dkrTFjrO0PwMJhht-131" value="" style="endArrow=none;html=1;rounded=0;" edge="1" parent="1">
          <mxGeometry width="50" height="50" relative="1" as="geometry">
            <mxPoint x="579" y="1745" as="sourcePoint" />
            <mxPoint x="579" y="1785" as="targetPoint" />
          </mxGeometry>
        </mxCell>
        <mxCell id="99X4dkrTFjrO0PwMJhht-132" value="" style="endArrow=none;html=1;rounded=0;" edge="1" parent="1">
          <mxGeometry width="50" height="50" relative="1" as="geometry">
            <mxPoint x="779" y="1785" as="sourcePoint" />
            <mxPoint x="779" y="1745" as="targetPoint" />
          </mxGeometry>
        </mxCell>
        <mxCell id="99X4dkrTFjrO0PwMJhht-133" value="&lt;b&gt;E&lt;sub&gt;i - 1&lt;/sub&gt;&lt;/b&gt;" style="text;html=1;align=center;verticalAlign=middle;whiteSpace=wrap;rounded=0;" vertex="1" parent="1">
          <mxGeometry x="249" y="1625" width="60" height="30" as="geometry" />
        </mxCell>
        <mxCell id="99X4dkrTFjrO0PwMJhht-134" value="Stored Old Key" style="text;html=1;align=center;verticalAlign=middle;whiteSpace=wrap;rounded=0;" vertex="1" parent="1">
          <mxGeometry x="229" y="1645" width="100" height="30" as="geometry" />
        </mxCell>
        <mxCell id="99X4dkrTFjrO0PwMJhht-135" value="Stored Key" style="text;html=1;align=center;verticalAlign=middle;whiteSpace=wrap;rounded=0;" vertex="1" parent="1">
          <mxGeometry x="445" y="1645" width="76" height="30" as="geometry" />
        </mxCell>
        <mxCell id="99X4dkrTFjrO0PwMJhht-136" value="" style="shape=curlyBracket;whiteSpace=wrap;html=1;rounded=1;flipH=1;labelPosition=right;verticalLabelPosition=middle;align=left;verticalAlign=middle;rotation=-90;" vertex="1" parent="1">
          <mxGeometry x="269" y="1575" width="20" height="200" as="geometry" />
        </mxCell>
        <mxCell id="99X4dkrTFjrO0PwMJhht-137" value="" style="shape=curlyBracket;whiteSpace=wrap;html=1;rounded=1;flipH=1;labelPosition=right;verticalLabelPosition=middle;align=left;verticalAlign=middle;rotation=-90;" vertex="1" parent="1">
          <mxGeometry x="669" y="1575" width="20" height="200" as="geometry" />
        </mxCell>
        <mxCell id="99X4dkrTFjrO0PwMJhht-138" value="" style="shape=curlyBracket;whiteSpace=wrap;html=1;rounded=1;flipH=1;labelPosition=right;verticalLabelPosition=middle;align=left;verticalAlign=middle;rotation=-90;" vertex="1" parent="1">
          <mxGeometry x="469" y="1575" width="20" height="200" as="geometry" />
        </mxCell>
        <mxCell id="99X4dkrTFjrO0PwMJhht-139" value="&lt;b&gt;E&lt;sub&gt;i + 1&lt;/sub&gt;&lt;/b&gt;" style="text;html=1;align=center;verticalAlign=middle;whiteSpace=wrap;rounded=0;" vertex="1" parent="1">
          <mxGeometry x="649" y="1625" width="60" height="30" as="geometry" />
        </mxCell>
        <mxCell id="99X4dkrTFjrO0PwMJhht-140" value="&lt;b&gt;E&lt;sub&gt;i&amp;nbsp;&lt;/sub&gt;&lt;/b&gt;" style="text;html=1;align=center;verticalAlign=middle;whiteSpace=wrap;rounded=0;" vertex="1" parent="1">
          <mxGeometry x="449" y="1625" width="60" height="30" as="geometry" />
        </mxCell>
        <mxCell id="99X4dkrTFjrO0PwMJhht-142" value="" style="shape=curlyBracket;whiteSpace=wrap;html=1;rounded=1;labelPosition=left;verticalLabelPosition=middle;align=right;verticalAlign=middle;rotation=90;" vertex="1" parent="1">
          <mxGeometry x="534" y="1680" width="20" height="80" as="geometry" />
        </mxCell>
        <mxCell id="99X4dkrTFjrO0PwMJhht-143" value="Acc Win" style="text;html=1;align=center;verticalAlign=middle;resizable=0;points=[];autosize=1;strokeColor=none;fillColor=none;" vertex="1" parent="1">
          <mxGeometry x="509" y="1687" width="70" height="30" as="geometry" />
        </mxCell>
        <mxCell id="99X4dkrTFjrO0PwMJhht-144" value="" style="endArrow=none;html=1;rounded=0;fillColor=#e1d5e7;strokeColor=#9673a6;strokeWidth=2;" edge="1" parent="1">
          <mxGeometry width="50" height="50" relative="1" as="geometry">
            <mxPoint x="549" y="1840" as="sourcePoint" />
            <mxPoint x="549" y="1740" as="targetPoint" />
          </mxGeometry>
        </mxCell>
        <mxCell id="99X4dkrTFjrO0PwMJhht-145" value="PreFetch(E&lt;sub&gt;i+1&lt;/sub&gt;)" style="text;html=1;align=center;verticalAlign=middle;resizable=0;points=[];autosize=1;strokeColor=none;fillColor=none;" vertex="1" parent="1">
          <mxGeometry x="509" y="1840" width="100" height="30" as="geometry" />
        </mxCell>
        <mxCell id="99X4dkrTFjrO0PwMJhht-146" value="" style="endArrow=none;html=1;rounded=0;fillColor=#d5e8d4;strokeColor=#00FF00;strokeWidth=2;" edge="1" parent="1">
          <mxGeometry width="50" height="50" relative="1" as="geometry">
            <mxPoint x="583" y="1740" as="sourcePoint" />
            <mxPoint x="583" y="1800" as="targetPoint" />
          </mxGeometry>
        </mxCell>
        <mxCell id="99X4dkrTFjrO0PwMJhht-147" value="" style="endArrow=none;html=1;rounded=0;fillColor=#d5e8d4;strokeColor=#00FF00;strokeWidth=2;" edge="1" parent="1">
          <mxGeometry width="50" height="50" relative="1" as="geometry">
            <mxPoint x="384.71000000000004" y="1740" as="sourcePoint" />
            <mxPoint x="384.71000000000026" y="1790" as="targetPoint" />
          </mxGeometry>
        </mxCell>
        <mxCell id="99X4dkrTFjrO0PwMJhht-148" value="at&lt;sub&gt;i&lt;/sub&gt;" style="text;html=1;align=center;verticalAlign=middle;whiteSpace=wrap;rounded=0;" vertex="1" parent="1">
          <mxGeometry x="362" y="1780" width="60" height="30" as="geometry" />
        </mxCell>
        <mxCell id="99X4dkrTFjrO0PwMJhht-149" value="at&lt;sub&gt;i+1&lt;/sub&gt;" style="text;html=1;align=center;verticalAlign=middle;whiteSpace=wrap;rounded=0;" vertex="1" parent="1">
          <mxGeometry x="560" y="1792" width="60" height="30" as="geometry" />
        </mxCell>
        <mxCell id="99X4dkrTFjrO0PwMJhht-150" value="" style="endArrow=none;html=1;rounded=0;entryX=0.5;entryY=0;entryDx=0;entryDy=0;fillColor=#e51400;strokeColor=#FF0000;strokeWidth=2;" edge="1" parent="1">
          <mxGeometry width="50" height="50" relative="1" as="geometry">
            <mxPoint x="543.71" y="1740" as="sourcePoint" />
            <mxPoint x="543.71" y="1820" as="targetPoint" />
            <Array as="points">
              <mxPoint x="543.71" y="1780" />
            </Array>
          </mxGeometry>
        </mxCell>
        <mxCell id="99X4dkrTFjrO0PwMJhht-151" value="&lt;b&gt;&lt;font style=&quot;font-size: 18px;&quot;&gt;T&lt;/font&gt;&lt;/b&gt;" style="text;html=1;align=center;verticalAlign=middle;whiteSpace=wrap;rounded=0;" vertex="1" parent="1">
          <mxGeometry x="504" y="1807" width="60" height="30" as="geometry" />
        </mxCell>
        <mxCell id="99X4dkrTFjrO0PwMJhht-152" value="&lt;u&gt;Invalid case&lt;br&gt;&lt;/u&gt;&lt;br&gt;T&amp;nbsp;∈ E&lt;sub&gt;i&lt;br&gt;&lt;/sub&gt;AbsTime&amp;nbsp;∈ E&lt;sub&gt;i+1&lt;/sub&gt;&lt;br&gt;T &amp;lt; PreFetch(E&lt;sub&gt;i+1&lt;/sub&gt;)" style="shape=ext;double=1;rounded=0;whiteSpace=wrap;html=1;" vertex="1" parent="1">
          <mxGeometry x="40" y="1600" width="130" height="120" as="geometry" />
        </mxCell>
        <mxCell id="99X4dkrTFjrO0PwMJhht-155" value="In this case LF would not have fetched the key corresponding to E&lt;sub&gt;i+1&lt;/sub&gt; yet. This however is not an issue since it is anyways not yet valid.&amp;nbsp;" style="rounded=0;whiteSpace=wrap;html=1;" vertex="1" parent="1">
          <mxGeometry x="40" y="1840" width="320" height="80" as="geometry" />
        </mxCell>
      </root>
    </mxGraphModel>
  </diagram>
</mxfile>
